{"glyphs":{":":{"x_min":0,"x_max":252,"ha":252,"o":""},"$":{"x_min":0,"x_max":444,"ha":444,"o":"m 389 487 l 367 416 q 319 438 255 438 q 160 438 160 374 q 160 351 178 335 q 197 319 247 297 q 372 244 372 163 q 372 35 228 16 q 219 -68 217 -128 l 163 -128 q 167 -99 180 13 q 105 13 41 29 l 62 101 q 121 76 189 76 q 298 76 298 139 q 298 184 210 223 q 153 248 127 270 q 86 306 86 356 q 86 417 127 455 q 168 492 232 499 q 242 592 244 648 l 299 648 q 294 625 280 501 q 349 500 389 487 z m 258 515 z"},"?":{"x_min":0,"x_max":353,"ha":353,"o":"m 311 517 q 311 457 266 405 q 225 358 165 336 l 148 262 l 111 262 l 104 366 q 231 397 231 493 q 231 590 45 590 l 63 652 q 311 652 311 517 z m 165 81 q 165 47 143 23 q 122 -1 88 -1 q 38 -1 38 55 q 38 88 59 111 q 81 134 114 134 q 165 134 165 81 z"},"<":{"x_min":0,"x_max":504,"ha":504,"o":"m 452 429 l 134 255 l 132 244 l 415 73 l 371 12 l 52 229 l 57 271 l 420 488 z"},"'":{"x_min":0,"x_max":239,"ha":239,"o":"m 204 642 q 204 587 177 500 q 150 412 118 343 l 100 343 q 94 415 94 483 q 94 602 106 648 q 118 694 160 694 q 204 694 204 642 z"},"=":{"x_min":0,"x_max":504,"ha":504,"o":"m 456 377 l 449 315 l 70 315 l 77 377 z m 435 175 l 428 113 l 48 113 l 56 175 z"},"a":{"x_min":0,"x_max":479,"ha":479,"o":"m 437 486 q 392 238 392 125 q 392 74 401 5 l 318 -7 q 315 36 315 102 l 311 102 q 249 -11 147 -11 q 88 -11 57 36 q 26 83 26 159 q 26 281 112 371 q 197 461 357 463 l 379 479 z m 348 408 q 224 406 167 341 q 110 275 110 168 q 110 57 184 57 q 236 57 279 131 q 323 206 333 266 q 344 326 348 408 z"},"L":{"x_min":0,"x_max":455,"ha":455,"o":"m 419 72 l 408 0 l 43 0 q 52 52 84 334 q 104 517 106 636 l 196 636 q 189 594 159 334 q 142 167 128 66 q 241 66 419 72 z"},"3":{"x_min":0,"x_max":464,"ha":464,"o":"m 405 399 q 405 296 274 250 l 273 245 q 335 233 369 190 q 402 147 402 87 q 402 -44 279 -115 q 156 -186 7 -194 l 0 -135 q 115 -123 214 -71 q 313 -18 313 73 q 313 191 100 191 l 116 251 q 189 251 259 281 q 328 311 328 371 q 328 449 192 449 q 136 449 93 439 l 107 506 q 163 520 246 520 q 329 520 367 485 q 405 450 405 399 z"},";":{"x_min":0,"x_max":252,"ha":252,"o":""},"J":{"x_min":0,"x_max":384,"ha":384,"o":"m 353 636 q 342 570 307 272 q 290 107 218 40 q 161 -13 57 -13 q 12 -13 -23 -3 l -9 68 q 23 52 54 52 q 125 52 161 81 q 217 127 231 261 q 255 482 259 636 z"},"V":{"x_min":0,"x_max":563,"ha":563,"o":"m 590 636 q 590 588 432 313 q 274 38 270 0 l 209 0 q 209 62 123 313 q 36 564 36 636 l 124 636 q 124 572 189 362 q 255 151 255 98 l 260 98 q 263 132 382 358 q 501 584 501 636 z"},"\"":{"x_min":0,"x_max":436,"ha":436,"o":""},"7":{"x_min":0,"x_max":450,"ha":450,"o":"m 436 515 q 426 400 269 140 q 112 -120 108 -161 l 24 -151 q 29 -100 184 140 q 338 380 344 447 q 245 447 51 435 l 62 515 z"},"S":{"x_min":0,"x_max":487,"ha":487,"o":"m 439 629 l 419 552 q 361 575 282 575 q 147 575 147 483 q 147 447 175 422 q 202 397 264 368 q 342 332 385 288 q 427 244 427 176 q 427 -16 168 -16 q 81 -16 15 5 l 40 82 q 105 53 175 53 q 350 53 350 156 q 350 199 318 229 q 286 259 219 292 q 144 327 108 366 q 72 404 72 465 q 72 555 133 600 q 194 645 289 645 q 399 645 439 629 z"},"}":{"x_min":0,"x_max":353,"ha":353,"o":"m 307 290 l 300 217 q 182 193 182 127 q 182 105 190 40 q 199 -25 199 -56 q 199 -137 128 -187 q 70 -228 -23 -239 l -38 -178 q 122 -150 122 -34 q 122 -10 113 51 q 104 112 104 131 q 104 175 140 212 q 176 248 221 248 l 222 251 q 194 251 165 273 q 127 302 127 350 q 127 381 156 454 q 185 528 185 559 q 185 650 52 681 l 82 743 q 268 709 268 596 q 268 560 236 470 q 205 381 205 356 q 205 325 242 307 q 271 292 307 290 z"},"Z":{"x_min":0,"x_max":488,"ha":488,"o":"m 468 636 l 458 575 q 396 497 262 294 q 128 92 126 72 l 125 66 q 221 66 422 80 l 412 0 l 14 0 l 24 59 q 92 145 229 345 q 367 546 370 570 l 371 575 q 269 575 81 563 l 89 636 z"},"x":{"x_min":0,"x_max":495,"ha":495,"o":"m 466 469 q 466 449 400 372 q 334 294 291 253 l 291 248 q 324 202 381 107 q 438 12 438 0 l 337 -5 q 337 8 299 84 q 261 160 235 202 l 232 202 q 205 167 157 91 q 108 15 108 0 l 11 -5 q 11 19 81 104 q 152 188 210 246 l 210 250 q 185 285 132 370 q 79 455 79 464 l 179 469 q 179 457 210 390 q 241 323 261 292 l 265 292 q 291 320 332 386 q 374 451 374 464 z"},")":{"x_min":0,"x_max":353,"ha":353,"o":"m 272 364 q 272 188 201 19 q 117 -180 -23 -237 l -43 -196 q 26 -140 76 -67 q 195 109 195 345 q 195 576 46 701 l 85 743 q 140 715 179 668 q 272 556 272 364 z"},"&":{"x_min":0,"x_max":647,"ha":647,"o":"m 596 0 l 495 0 q 495 16 470 63 q 445 109 430 128 l 426 128 q 320 -14 173 -14 q 103 -14 58 31 q 14 77 14 147 q 14 225 58 284 q 102 343 177 373 l 177 376 q 106 439 106 499 q 106 565 157 606 q 208 646 276 646 q 334 646 375 616 q 415 585 415 529 q 415 480 385 440 q 355 400 310 381 l 308 376 q 357 348 450 241 l 453 241 q 476 277 486 372 l 574 372 q 572 353 541 291 q 510 230 484 204 l 484 200 q 507 174 552 99 q 596 24 596 0 z m 402 172 q 372 210 322 263 q 272 317 216 347 q 101 295 101 169 q 101 116 132 85 q 164 55 218 55 q 295 55 401 167 z m 338 508 q 338 546 318 566 q 298 586 269 586 q 234 586 210 563 q 186 541 186 506 q 186 446 269 403 q 338 434 338 508 z"},"_":{"x_min":0,"x_max":488,"ha":488,"o":"m 424 -250 l -80 -250 l -80 -188 l 424 -188 z"},"v":{"x_min":0,"x_max":469,"ha":469,"o":"m 458 469 q 458 421 341 223 q 224 24 222 0 l 159 0 q 159 67 101 241 q 42 416 42 464 l 132 469 q 132 423 173 277 q 214 131 214 92 l 218 92 q 220 108 294 260 q 368 412 368 464 z"},"O":{"x_min":0,"x_max":644,"ha":644,"o":"m 609 363 q 609 212 516 96 q 422 -19 280 -19 q 181 -19 107 59 q 34 138 34 266 q 34 421 128 535 q 222 648 363 648 q 462 648 536 571 q 609 493 609 363 z m 526 359 q 526 464 472 522 q 417 581 343 581 q 241 581 180 487 q 119 393 119 271 q 119 167 173 108 q 227 49 301 49 q 401 49 464 144 q 526 239 526 359 z"},"(":{"x_min":0,"x_max":353,"ha":353,"o":"m 366 701 q 297 647 248 574 q 128 399 128 160 q 128 -70 276 -196 l 238 -237 q 184 -210 145 -163 q 51 -51 51 141 q 51 317 123 487 q 207 686 346 743 z"},"C":{"x_min":0,"x_max":493,"ha":493,"o":"m 490 631 l 468 554 q 417 571 375 571 q 259 571 189 488 q 119 405 119 287 q 119 190 177 123 q 234 57 344 57 q 389 57 463 78 l 450 5 q 368 -13 323 -13 q 178 -13 106 72 q 34 156 34 277 q 34 433 139 539 q 245 645 403 645 q 445 645 490 631 z"},"W":{"x_min":0,"x_max":900,"ha":900,"o":"m 926 636 q 926 599 785 315 q 643 31 640 0 l 579 0 q 579 39 523 252 q 467 466 463 537 l 458 537 q 441 467 345 250 q 250 33 246 0 l 186 0 q 186 50 111 334 q 36 618 36 636 l 125 636 q 125 617 177 388 q 228 159 228 98 l 233 98 q 238 150 340 378 q 442 606 442 636 l 523 636 q 523 609 574 380 q 625 150 625 98 l 629 98 q 634 142 735 365 q 835 589 835 636 z"},"A":{"x_min":0,"x_max":602,"ha":602,"o":"m 556 0 l 458 0 q 458 47 421 206 l 153 206 q 132 159 116 122 q 78 31 74 0 l -20 0 q -17 14 134 312 q 284 608 287 636 l 394 636 q 394 592 475 317 q 556 42 556 0 z m 406 270 q 329 552 329 574 l 325 574 q 323 559 179 270 z"},"f":{"x_min":0,"x_max":333,"ha":333,"o":"m 370 694 l 354 632 q 328 636 300 636 q 257 636 238 600 q 219 563 208 454 q 253 454 336 459 l 327 386 q 237 389 201 389 q 188 210 176 54 q 164 -101 127 -151 q 91 -202 27 -220 l 8 -182 q 53 -145 72 -97 q 91 -49 104 85 q 117 219 130 389 q 102 389 31 386 l 42 458 q 105 454 137 454 q 150 582 191 642 q 231 701 312 701 q 340 701 370 694 z m 173 468 z"},"Q":{"x_min":0,"x_max":644,"ha":644,"o":"m 608 364 q 608 254 558 161 q 508 68 415 17 l 415 12 q 492 4 522 -40 q 553 -83 566 -212 l 478 -216 q 463 -83 429 -51 q 396 -19 279 -19 q 181 -19 108 59 q 34 137 34 266 q 34 414 126 531 q 218 648 363 648 q 462 648 535 571 q 608 494 608 364 z m 526 359 q 526 464 472 522 q 417 581 343 581 q 241 581 180 487 q 119 393 119 271 q 119 167 173 108 q 227 49 301 49 q 401 49 464 144 q 526 239 526 359 z"},"w":{"x_min":0,"x_max":740,"ha":740,"o":"m 729 469 q 729 425 627 227 q 524 28 521 0 l 458 0 q 458 19 427 157 q 395 295 380 379 l 376 379 q 343 292 276 154 q 209 17 208 0 l 144 0 q 144 25 93 226 q 42 427 42 464 l 128 469 q 128 428 161 271 q 193 115 193 92 l 198 92 q 202 130 276 283 q 350 436 350 464 l 429 464 q 429 441 467 277 q 505 112 505 92 l 510 92 q 513 117 578 268 q 644 419 644 464 z"},"-":{"x_min":0,"x_max":252,"ha":252,"o":"m 232 284 l 220 221 l 20 214 l 31 276 z"},"E":{"x_min":0,"x_max":481,"ha":481,"o":"m 460 636 l 449 563 q 323 569 180 569 q 178 543 166 410 l 162 364 q 285 364 381 370 l 373 297 q 271 302 154 302 q 141 176 133 66 q 287 66 429 74 l 417 0 l 43 0 q 53 69 84 334 q 103 506 105 636 z"},"s":{"x_min":0,"x_max":392,"ha":392,"o":"m 360 467 l 338 396 q 289 415 226 415 q 131 415 131 351 q 131 328 149 312 q 167 297 218 275 q 342 222 342 140 q 342 -10 152 -10 q 76 -10 11 3 l 33 75 q 91 53 159 53 q 269 53 269 116 q 269 160 181 199 q 56 253 56 334 q 56 404 107 441 q 159 478 233 478 q 313 478 360 467 z"},">":{"x_min":0,"x_max":504,"ha":504,"o":"m 452 271 l 447 229 l 84 12 l 52 73 l 372 245 l 373 256 l 89 429 l 133 488 z"},"l":{"x_min":0,"x_max":229,"ha":229,"o":"m 203 692 q 203 663 189 561 q 174 459 165 364 q 141 136 136 2 l 47 -7 q 47 13 63 123 q 80 233 93 364 q 114 564 114 687 z"},"8":{"x_min":0,"x_max":525,"ha":525,"o":"m 466 535 q 466 482 433 439 q 399 396 348 375 l 348 370 q 463 298 463 195 q 463 103 396 46 q 329 -10 234 -10 q 158 -10 104 34 q 49 79 49 156 q 49 290 202 355 l 202 360 q 122 417 122 503 q 122 579 177 623 q 233 667 311 667 q 375 667 420 631 q 466 595 466 535 z m 385 181 q 385 264 258 333 q 202 314 164 269 q 126 224 126 167 q 126 113 161 84 q 195 55 245 55 q 302 55 343 90 q 385 125 385 181 z m 392 526 q 392 567 365 589 q 339 611 302 611 q 259 611 228 585 q 197 560 197 518 q 197 446 294 395 q 392 438 392 526 z"},"\\":{"x_min":0,"x_max":239,"ha":239,"o":"m 199 -147 l 125 -147 q 125 -65 87 306 q 49 677 49 710 l 123 710 q 123 618 161 251 q 199 -116 199 -147 z"},"e":{"x_min":0,"x_max":476,"ha":476,"o":"m 449 372 q 449 306 388 271 q 311 228 124 224 q 124 136 154 96 q 185 57 257 57 q 328 57 411 106 l 399 34 q 333 -13 236 -13 q 136 -13 89 47 q 42 106 42 198 q 42 333 121 409 q 200 485 303 485 q 365 485 407 455 q 449 425 449 372 z m 372 370 q 372 396 348 409 q 324 423 286 423 q 233 423 187 388 q 142 353 128 280 q 278 283 333 312 q 372 332 372 370 z"},"b":{"x_min":0,"x_max":540,"ha":540,"o":"m 498 291 q 498 159 431 73 q 364 -13 249 -13 q 171 -13 133 19 l 129 19 l 116 0 l 47 -5 q 53 40 89 364 q 110 560 110 687 l 203 692 q 203 674 194 617 q 181 533 170 426 q 168 401 162 360 l 166 360 q 230 479 343 479 q 412 479 455 428 q 498 377 498 291 z m 415 261 q 415 412 309 412 q 255 412 205 345 q 154 278 146 188 l 137 78 q 184 49 229 49 q 321 49 368 108 q 415 167 415 261 z"},"%":{"x_min":0,"x_max":504,"ha":504,"o":"m 289 535 q 289 479 251 441 q 212 403 157 403 q 105 403 76 435 q 49 464 49 507 q 49 562 87 601 q 125 639 181 639 q 233 639 263 607 q 289 578 289 535 z m 438 126 q 438 71 399 33 q 361 -5 305 -5 q 253 -5 224 27 q 197 55 197 99 q 197 154 236 192 q 274 230 330 230 q 382 230 411 198 q 438 169 438 126 z m 491 631 q 486 587 277 322 q 68 56 62 0 l 8 5 q 13 52 222 319 q 431 585 436 636 z m 384 121 q 384 149 370 168 q 354 188 326 188 q 293 188 271 160 q 251 134 251 101 q 251 73 265 55 q 281 35 310 35 q 342 35 364 62 q 384 87 384 121 z m 235 531 q 235 559 221 577 q 205 597 177 597 q 145 597 123 569 q 103 542 103 509 q 103 482 117 464 q 133 444 161 444 q 194 444 215 472 q 235 497 235 531 z"},"m":{"x_min":0,"x_max":803,"ha":803,"o":"m 745 334 q 745 279 734 167 q 723 55 723 0 l 640 -5 q 640 33 654 147 q 668 261 668 305 q 668 363 651 387 q 634 412 598 412 q 536 412 492 347 q 448 283 438 188 q 427 69 427 0 l 344 -5 q 344 28 358 146 q 373 263 373 305 q 373 363 356 387 q 339 412 302 412 q 243 412 198 344 q 152 276 143 188 q 131 70 126 0 l 47 -5 q 81 248 81 337 q 81 388 73 462 l 156 474 q 159 426 159 360 l 163 360 q 219 479 327 479 q 385 479 415 446 q 444 412 443 360 l 448 360 q 508 479 617 479 q 745 479 745 334 z"},"#":{"x_min":0,"x_max":504,"ha":504,"o":"m 489 447 l 482 385 l 394 385 q 381 358 366 327 q 351 294 337 265 l 421 265 l 415 202 l 308 202 q 229 30 219 0 l 159 0 q 168 19 254 202 l 145 202 q 67 30 56 0 l -3 0 q 5 20 92 202 l 16 202 l 23 265 l 122 265 q 131 284 142 306 q 161 348 179 385 l 84 385 l 90 447 l 207 447 q 278 602 286 639 l 345 639 q 339 619 259 447 l 370 447 q 441 603 448 639 l 507 639 q 502 620 422 447 z m 341 385 l 230 385 q 218 357 203 326 q 188 293 175 265 l 285 265 q 294 285 304 307 q 324 348 341 385 z"},",":{"x_min":0,"x_max":252,"ha":252,"o":"m 158 70 q 158 -48 0 -180 l -23 -151 q 22 -103 40 -62 q 50 -37 55 7 q 31 21 31 57 q 31 89 53 112 q 76 134 108 134 q 133 134 146 113 q 158 96 158 70 z m 88 -1 z"},"n":{"x_min":0,"x_max":523,"ha":523,"o":"m 465 334 q 465 295 454 177 q 443 58 443 0 l 360 -5 q 360 17 375 133 q 389 250 389 310 q 389 367 368 389 q 347 412 303 412 q 250 412 200 342 q 151 272 143 188 q 132 79 126 0 l 47 -5 q 81 248 81 337 q 81 388 73 462 l 156 474 q 159 431 159 360 l 163 360 q 226 479 337 479 q 465 479 465 334 z"},"h":{"x_min":0,"x_max":525,"ha":525,"o":"m 467 334 q 467 295 456 177 q 445 58 445 0 l 362 -5 q 362 17 376 133 q 391 250 391 310 q 391 367 370 389 q 349 412 305 412 q 251 412 202 342 q 153 272 145 188 q 134 79 128 0 l 47 -5 q 53 40 88 364 q 108 560 108 687 l 201 692 q 201 674 192 617 q 180 533 169 426 q 167 401 161 360 l 165 360 q 228 479 339 479 q 467 479 467 334 z"},"z":{"x_min":0,"x_max":419,"ha":419,"o":"m 393 464 l 380 393 q 341 353 232 221 q 124 89 124 70 l 124 65 q 264 65 365 74 l 354 0 l 17 0 l 29 71 q 55 95 175 236 q 294 376 294 394 l 294 398 q 145 398 60 393 l 70 464 z"},"B":{"x_min":0,"x_max":546,"ha":546,"o":"m 498 206 q 498 99 412 48 q 326 -3 194 -3 q 158 -3 43 0 q 53 69 84 334 q 102 506 104 636 l 165 636 q 181 636 236 637 q 290 639 312 639 q 393 639 442 604 q 491 570 491 506 q 491 455 462 412 q 432 367 383 353 l 383 348 q 430 339 464 303 q 498 267 498 206 z m 417 201 q 417 306 227 306 q 190 306 152 303 q 138 172 132 70 q 159 65 218 65 q 302 65 360 94 q 417 122 417 201 z m 411 487 q 411 575 292 575 q 227 575 177 568 q 177 557 159 369 q 190 368 218 368 q 303 368 346 386 q 411 414 411 487 z"},"K":{"x_min":0,"x_max":550,"ha":550,"o":"m 528 636 q 528 621 418 511 q 309 400 257 364 l 256 359 q 308 337 412 172 q 508 21 508 0 l 412 0 q 412 8 369 87 q 319 178 267 249 q 215 319 182 319 l 159 319 q 146 205 134 0 l 43 0 q 53 69 84 334 q 102 506 104 636 l 197 636 q 188 576 165 372 l 175 372 q 196 372 316 498 q 434 622 434 636 z"},"R":{"x_min":0,"x_max":554,"ha":554,"o":"m 510 0 l 422 0 q 395 130 371 186 q 347 242 315 257 q 284 272 219 272 q 179 272 152 271 q 135 114 133 0 l 43 0 q 53 69 84 334 q 102 506 104 636 l 174 636 q 176 636 218 637 q 260 639 301 639 q 389 639 439 599 q 490 559 490 492 q 490 432 453 385 q 417 339 356 319 l 356 314 q 404 298 435 238 q 466 177 510 0 z m 407 475 q 407 574 269 574 q 215 574 180 568 q 176 512 159 337 q 186 336 211 336 q 407 336 407 475 z"},"T":{"x_min":0,"x_max":504,"ha":504,"o":"m 518 636 l 509 567 q 417 572 320 572 q 311 493 294 334 q 277 175 269 0 l 178 0 q 189 77 220 334 q 235 476 242 572 q 173 572 48 566 l 57 636 z"},"P":{"x_min":0,"x_max":523,"ha":523,"o":"m 502 485 q 502 368 413 312 q 324 256 191 256 q 164 256 152 257 q 140 143 137 0 l 43 0 q 53 62 85 334 q 103 502 105 636 l 176 636 q 187 636 237 637 q 288 639 323 639 q 405 639 453 595 q 502 551 502 485 z m 421 466 q 421 575 271 575 q 231 575 182 568 l 158 320 q 174 319 197 319 q 421 319 421 466 z"},"|":{"x_min":0,"x_max":252,"ha":252,"o":"m 166 -252 l 86 -252 q 91 69 91 230 q 91 387 85 757 l 165 757 q 160 395 160 230 q 160 69 166 -252 z"},"t":{"x_min":0,"x_max":372,"ha":372,"o":"m 331 89 l 319 24 q 268 -10 213 -10 q 146 -10 120 23 q 94 56 94 128 q 94 188 122 389 q 96 389 42 386 l 52 457 q 98 454 132 454 q 135 474 153 593 l 227 601 q 218 551 204 454 q 249 454 333 459 l 324 386 q 243 389 192 389 q 167 225 167 154 q 167 99 181 78 q 195 58 229 58 q 278 58 331 89 z m 173 468 z"},"M":{"x_min":0,"x_max":778,"ha":778,"o":"m 699 0 l 607 0 q 607 257 631 567 l 626 567 q 621 551 594 480 q 566 409 475 224 q 384 39 380 0 l 315 0 q 315 50 266 261 q 216 472 211 504 q 206 536 202 567 l 197 567 q 188 492 146 256 q 103 20 103 0 l 21 0 q 21 17 82 287 q 143 558 151 636 l 268 636 q 268 560 317 367 q 366 174 366 107 l 371 107 q 376 159 479 375 q 582 590 586 636 l 706 636 q 690 497 690 278 q 690 107 699 0 z"},"g":{"x_min":0,"x_max":508,"ha":508,"o":"m 520 525 l 505 458 q 425 458 408 428 l 407 424 q 429 388 429 347 q 429 260 369 211 q 309 162 220 162 q 171 162 146 171 q 118 151 118 115 q 118 90 140 82 q 163 74 315 74 q 448 74 448 -29 q 448 -130 365 -191 q 283 -252 175 -252 q 73 -252 30 -215 q -14 -177 -14 -110 q -14 -19 83 22 l 83 26 q 53 42 53 85 q 53 136 108 182 l 109 186 q 90 196 71 228 q 52 259 52 299 q 52 385 111 432 q 169 479 260 479 q 336 479 381 447 l 385 447 q 399 495 417 514 q 436 533 468 533 q 502 533 520 525 z m 374 -61 q 374 -21 345 -10 q 317 1 218 1 q 172 1 123 7 q 56 -26 56 -94 q 56 -197 184 -197 q 263 -197 318 -158 q 374 -120 374 -61 z m 352 333 q 352 379 321 404 q 293 428 248 428 q 194 428 160 394 q 126 360 126 306 q 126 261 154 237 q 182 213 230 213 q 284 213 318 246 q 352 279 352 333 z"},"j":{"x_min":0,"x_max":227,"ha":227,"o":"m 175 473 q 175 438 162 339 q 148 240 138 118 q 127 -3 125 -27 q 108 -185 -9 -219 l -28 -182 q 17 -145 34 -95 q 51 -44 70 134 q 88 313 88 407 q 88 441 86 460 z m 210 617 q 210 589 192 569 q 173 549 145 549 q 100 549 100 596 q 100 625 119 644 q 139 664 167 664 q 210 664 210 617 z"},"i":{"x_min":0,"x_max":227,"ha":227,"o":"m 175 473 q 176 438 167 376 q 158 314 148 223 q 141 154 132 0 l 47 -5 q 58 72 77 223 q 87 321 87 403 q 87 438 85 460 z m 210 617 q 210 589 192 569 q 173 549 145 549 q 101 549 101 596 q 101 625 119 644 q 138 664 166 664 q 210 664 210 617 z"},"y":{"x_min":0,"x_max":453,"ha":453,"o":"m 442 469 q 442 407 341 223 q 240 40 224 -6 q 180 -129 142 -168 q 96 -216 0 -216 l 2 -147 q 65 -147 115 -100 q 164 -52 164 8 q 164 83 103 251 q 42 419 42 464 l 138 469 q 138 409 176 266 q 214 124 214 83 l 220 83 q 222 109 290 257 q 358 405 358 464 z"},"@":{"x_min":0,"x_max":958,"ha":958,"o":"m 907 338 q 907 202 838 94 q 769 -14 655 -14 q 607 -14 576 14 q 546 42 546 92 q 546 97 547 109 l 543 109 q 478 -14 381 -14 q 329 -14 301 33 q 274 81 274 150 q 274 270 346 374 q 417 478 533 478 q 599 478 619 434 l 624 434 l 635 464 l 695 474 q 664 358 627 193 q 622 165 622 140 q 622 52 692 52 q 750 52 789 146 q 828 241 828 332 q 828 463 754 554 q 681 645 522 645 q 349 645 240 501 q 130 357 130 180 q 130 37 209 -59 q 287 -154 438 -154 q 510 -154 570 -132 l 571 -217 q 512 -232 428 -232 q 247 -232 151 -111 q 55 10 55 184 q 55 396 186 558 q 317 720 528 720 q 717 720 812 607 q 907 494 907 338 z m 599 379 q 580 408 531 408 q 452 408 401 324 q 350 240 350 155 q 350 57 414 57 q 466 57 525 150 q 584 244 599 379 z"},".":{"x_min":0,"x_max":252,"ha":252,"o":"m 155 81 q 155 47 133 23 q 111 -1 78 -1 q 28 -1 28 55 q 28 88 50 111 q 71 134 104 134 q 155 134 155 81 z"},"p":{"x_min":0,"x_max":537,"ha":537,"o":"m 495 291 q 495 158 427 73 q 360 -13 246 -13 q 168 -13 132 19 l 128 19 q 114 -117 106 -218 l 20 -223 q 81 227 81 352 q 81 398 73 462 l 156 474 q 159 434 159 360 l 163 360 q 227 479 339 479 q 409 479 452 428 q 495 377 495 291 z m 411 261 q 411 412 305 412 q 252 412 202 345 q 151 278 143 188 l 133 78 q 181 49 225 49 q 318 49 365 108 q 411 167 411 261 z"},"X":{"x_min":0,"x_max":564,"ha":564,"o":"m 553 636 q 553 622 457 506 q 361 390 329 359 l 329 354 q 360 317 437 173 q 514 28 514 0 l 413 0 q 413 24 353 144 q 292 263 266 300 l 261 300 q 227 258 155 140 q 83 22 83 0 l -25 0 q -25 14 91 167 q 208 321 234 344 l 234 349 q 212 378 144 500 q 76 622 76 636 l 176 636 q 176 617 226 521 q 276 424 295 396 l 299 396 q 327 428 392 525 q 457 622 457 636 z"},"*":{"x_min":0,"x_max":504,"ha":504,"o":"m 450 517 q 450 486 411 478 q 394 474 345 474 q 326 474 283 478 l 279 468 q 368 380 368 352 q 368 332 344 312 q 321 292 301 292 q 263 292 247 448 l 236 448 q 170 307 137 307 q 117 307 99 324 q 80 341 80 361 q 80 396 211 471 l 209 482 q 158 487 78 502 q 61 506 61 539 q 61 562 75 581 q 89 602 107 602 q 134 602 226 518 l 235 523 q 226 608 226 649 q 226 660 226 666 q 228 681 246 691 q 262 700 283 700 q 325 700 325 666 q 325 627 271 521 l 278 514 q 386 582 414 582 q 431 582 442 558 q 450 539 450 517 z"},"Y":{"x_min":0,"x_max":512,"ha":512,"o":"m 539 636 q 539 617 456 508 q 373 398 326 329 q 279 260 274 207 q 264 109 264 0 l 170 0 q 198 184 198 224 q 198 284 167 358 q 135 432 85 526 q 36 620 36 636 l 131 636 q 131 617 193 478 q 255 339 255 292 l 260 292 q 265 337 355 476 q 446 614 446 636 z"},"c":{"x_min":0,"x_max":422,"ha":422,"o":"m 402 467 l 382 391 q 335 406 285 406 q 212 406 168 349 q 124 292 124 215 q 124 144 155 100 q 186 57 246 57 q 310 57 381 102 l 369 29 q 318 -13 230 -13 q 136 -13 86 53 q 42 111 42 204 q 42 316 115 396 q 188 475 313 475 q 369 475 402 467 z"},"!":{"x_min":0,"x_max":252,"ha":252,"o":"m 204 591 q 204 496 127 262 l 98 262 q 95 393 95 476 q 95 647 164 647 q 204 647 204 591 z m 154 81 q 154 47 133 23 q 111 -1 78 -1 q 27 -1 27 55 q 27 88 49 111 q 71 134 104 134 q 154 134 154 81 z"},"/":{"x_min":0,"x_max":267,"ha":267,"o":"m 278 710 q 275 677 151 306 q 27 -65 19 -147 l -50 -147 q -47 -116 76 251 q 200 618 209 710 z"},"[":{"x_min":0,"x_max":353,"ha":353,"o":"m 366 743 l 352 659 q 250 662 215 662 q 177 355 164 230 q 157 162 127 -161 q 161 -160 271 -151 l 258 -236 l 40 -231 q 79 68 95 230 q 105 330 142 736 z"},"6":{"x_min":0,"x_max":519,"ha":519,"o":"m 460 214 q 460 114 395 46 q 330 -21 229 -21 q 153 -21 101 37 q 49 94 49 204 q 49 395 143 519 q 237 644 420 656 l 422 597 q 300 584 237 521 q 174 458 145 334 l 150 334 q 201 397 303 397 q 378 397 419 343 q 460 289 460 214 z m 376 202 q 376 257 342 295 q 309 334 245 334 q 175 334 139 288 q 136 260 136 221 q 136 130 165 87 q 194 44 238 44 q 299 44 337 92 q 376 140 376 202 z"},"r":{"x_min":0,"x_max":364,"ha":364,"o":"m 372 469 l 342 392 q 308 401 277 401 q 165 401 152 286 q 134 119 126 0 l 47 -5 q 81 248 81 337 q 81 388 73 462 l 156 474 q 160 434 160 402 l 164 402 q 222 480 289 480 q 324 480 372 469 z"},"2":{"x_min":0,"x_max":432,"ha":432,"o":"m 374 69 l 356 0 l 20 0 l 37 76 q 104 110 196 186 q 288 263 288 359 q 288 449 166 449 q 134 449 72 442 l 89 510 q 125 520 184 520 q 288 520 330 478 q 372 437 372 384 q 372 333 348 284 q 325 236 267 183 q 209 130 112 67 l 112 63 q 244 63 374 69 z"},"{":{"x_min":0,"x_max":353,"ha":353,"o":"m 364 682 q 200 658 200 536 q 200 511 212 450 q 223 390 223 372 q 223 327 186 291 q 149 255 104 255 l 104 251 q 133 251 162 230 q 200 203 200 154 q 200 120 169 48 q 138 -23 138 -57 q 138 -142 278 -177 l 243 -239 q 58 -199 58 -95 q 58 -53 89 29 q 120 112 120 147 q 120 179 83 197 q 55 211 19 214 l 27 287 q 147 313 147 374 q 147 396 137 462 q 127 528 127 558 q 127 642 200 692 q 261 735 352 743 z"},"9":{"x_min":0,"x_max":515,"ha":515,"o":"m 457 288 q 457 89 359 -48 q 262 -185 71 -198 l 63 -138 q 313 -120 362 167 l 358 167 q 304 99 205 99 q 130 99 89 152 q 49 204 49 279 q 49 379 113 449 q 176 520 277 520 q 353 520 405 460 q 457 400 457 288 z m 372 273 q 372 362 340 407 q 309 452 263 452 q 204 452 169 405 q 134 357 134 297 q 134 241 165 202 q 196 163 256 163 q 325 163 369 219 q 372 247 372 273 z"}," ":{"x_min":0,"x_max":206,"ha":206,"o":""},"I":{"x_min":0,"x_max":241,"ha":241,"o":"m 198 636 q 189 576 160 334 q 144 180 138 35 l 137 0 l 43 0 q 54 72 85 334 q 104 507 104 636 z"},"H":{"x_min":0,"x_max":598,"ha":598,"o":"m 555 636 q 545 574 516 334 q 498 164 493 0 l 400 0 q 411 80 436 303 l 159 303 q 147 194 136 0 l 43 0 q 55 83 85 334 q 102 497 105 636 l 198 636 q 188 571 164 364 l 444 364 q 456 470 461 636 z"},"4":{"x_min":0,"x_max":499,"ha":499,"o":"m 455 153 l 437 74 l 357 74 q 348 -17 338 -161 l 254 -161 q 271 -35 283 74 l 23 74 l 20 138 q 21 150 165 329 q 308 507 309 515 l 409 515 q 392 409 365 148 q 407 148 455 153 z m 326 445 l 323 445 q 322 432 209 294 q 97 157 97 149 l 96 145 q 175 145 291 148 q 312 298 326 445 z"},"~":{"x_min":0,"x_max":479,"ha":479,"o":"m 484 305 q 403 188 316 188 q 284 188 233 206 q 182 224 152 224 q 97 224 39 152 l -4 178 q 78 306 166 306 q 197 306 254 289 q 312 271 341 271 q 396 271 442 329 z"},"D":{"x_min":0,"x_max":591,"ha":591,"o":"m 557 362 q 557 209 457 101 q 357 -7 202 -7 q 154 -7 43 0 q 53 69 84 334 q 102 506 104 636 l 160 636 q 178 636 217 637 q 255 639 276 639 q 417 639 487 558 q 557 477 557 362 z m 475 352 q 475 447 417 510 q 358 573 239 573 q 210 573 178 568 q 173 516 156 334 q 142 202 132 66 q 168 59 204 59 q 328 59 401 143 q 475 228 475 352 z"},"^":{"x_min":0,"x_max":479,"ha":479,"o":"m 466 333 l 402 292 l 274 607 l 263 607 l 69 292 l 14 333 l 258 692 l 298 692 z"},"0":{"x_min":0,"x_max":535,"ha":535,"o":"m 476 309 q 476 178 409 83 q 342 -12 234 -12 q 141 -12 100 50 q 59 113 59 199 q 59 331 125 425 q 192 520 300 520 q 397 520 437 455 q 476 390 476 309 z m 395 291 q 395 358 369 406 q 343 454 284 454 q 219 454 179 385 q 139 316 139 215 q 139 136 168 95 q 198 53 250 53 q 313 53 354 120 q 395 188 395 291 z"},"F":{"x_min":0,"x_max":455,"ha":455,"o":"m 466 636 l 456 563 q 334 569 178 569 q 174 509 159 345 q 268 345 372 349 l 364 278 q 265 282 152 282 q 132 91 128 0 l 43 0 q 54 69 85 334 q 104 506 105 636 z"},"`":{"x_min":0,"x_max":274,"ha":274,"o":"m 232 530 l 177 530 q 177 538 124 610 q 71 683 70 688 l 165 688 q 165 683 199 611 q 232 538 232 530 z"},"k":{"x_min":0,"x_max":487,"ha":487,"o":"m 479 466 q 479 450 417 387 q 354 324 303 282 l 303 277 q 357 212 396 124 q 435 35 435 0 l 346 -5 q 346 21 318 97 q 290 173 251 226 q 217 192 192 157 q 133 73 128 0 l 47 -5 q 55 41 91 364 q 111 555 111 687 l 201 692 q 201 667 177 476 q 152 286 139 161 l 144 161 q 170 222 274 335 q 378 447 378 469 z"},"u":{"x_min":0,"x_max":523,"ha":523,"o":"m 476 474 q 442 202 442 113 q 442 62 450 3 l 367 -9 q 364 34 364 104 l 360 104 q 297 -14 186 -14 q 58 -14 58 131 q 58 169 69 288 q 80 406 80 464 l 165 474 q 165 453 149 334 q 134 215 134 155 q 134 98 155 75 q 176 53 220 53 q 273 53 323 123 q 372 193 380 276 q 392 396 392 464 z"},"]":{"x_min":0,"x_max":353,"ha":353,"o":"m 281 736 q 235 366 226 275 q 216 176 179 -231 l -45 -237 l -31 -152 q 71 -155 108 -155 q 149 193 157 275 q 165 343 194 667 q 160 666 49 658 l 63 742 z"},"U":{"x_min":0,"x_max":626,"ha":626,"o":"m 590 636 q 581 565 553 314 q 519 -13 269 -13 q 171 -13 116 41 q 61 95 61 229 q 61 271 64 309 q 75 412 91 636 l 184 636 q 171 547 147 344 q 141 289 141 240 q 141 138 175 94 q 208 51 281 51 q 370 51 416 112 q 462 172 480 345 q 491 448 499 636 z"},"o":{"x_min":0,"x_max":530,"ha":530,"o":"m 488 272 q 488 155 417 68 q 346 -19 229 -19 q 153 -19 97 43 q 42 104 42 203 q 42 318 113 402 q 184 485 301 485 q 379 485 433 428 q 488 370 488 272 z m 405 258 q 405 327 374 375 q 343 424 284 424 q 211 424 168 356 q 125 288 125 208 q 125 140 156 91 q 188 42 247 42 q 318 42 362 111 q 405 179 405 258 z"},"N":{"x_min":0,"x_max":608,"ha":608,"o":"m 570 636 q 561 578 532 334 q 513 159 503 0 l 438 0 q 438 18 306 252 q 169 496 156 553 l 150 553 q 153 532 153 493 q 153 424 144 331 q 126 167 115 0 l 38 0 q 49 73 80 334 q 98 506 99 636 l 194 636 q 194 607 315 393 q 442 169 454 107 l 458 107 q 455 125 455 152 q 455 231 465 329 q 484 510 486 636 z"},"+":{"x_min":0,"x_max":504,"ha":504,"o":"m 445 276 l 439 214 l 278 214 l 260 35 l 201 35 l 219 214 l 60 214 l 65 276 l 226 276 l 244 455 l 304 455 l 286 276 z"},"G":{"x_min":0,"x_max":568,"ha":568,"o":"m 520 630 l 500 549 q 420 569 377 569 q 261 569 190 487 q 119 405 119 289 q 119 190 179 122 q 239 53 350 53 q 377 53 423 61 q 423 71 423 86 q 423 121 428 188 q 433 255 433 290 l 517 290 q 512 260 499 153 q 496 123 493 13 q 409 -13 327 -13 q 182 -13 108 72 q 34 157 34 278 q 34 433 141 539 q 248 645 405 645 q 470 645 520 630 z"},"q":{"x_min":0,"x_max":532,"ha":532,"o":"m 490 469 q 481 422 448 140 q 436 21 417 -217 l 335 -222 q 342 -171 355 -56 q 367 59 378 107 l 374 107 q 310 -11 197 -11 q 128 -11 85 40 q 42 91 42 177 q 42 309 109 395 q 176 481 291 481 q 369 481 405 449 l 409 449 l 430 464 z m 403 390 q 360 418 313 418 q 220 418 173 361 q 125 304 125 207 q 125 56 231 56 q 283 56 334 123 q 386 190 394 279 z"},"d":{"x_min":0,"x_max":538,"ha":538,"o":"m 517 690 q 517 677 500 584 q 483 492 471 365 q 458 238 458 126 q 458 61 462 0 l 386 -6 q 378 34 378 107 l 374 107 q 310 -11 197 -11 q 128 -11 85 40 q 42 91 42 177 q 42 310 109 396 q 177 481 291 481 q 364 481 405 449 l 409 449 q 419 550 426 687 z m 403 390 q 361 418 312 418 q 220 418 173 362 q 125 305 125 207 q 125 56 231 56 q 285 56 335 123 q 386 190 394 279 z"},"1":{"x_min":0,"x_max":341,"ha":341,"o":"m 219 0 l 132 0 q 148 103 160 213 q 172 332 173 393 l 62 337 l 44 379 l 225 509 l 272 509 q 251 351 237 213 q 226 109 219 0 z"},"5":{"x_min":0,"x_max":458,"ha":458,"o":"m 400 515 l 389 438 q 296 451 167 451 q 157 413 138 277 q 399 277 399 107 q 399 -21 284 -97 q 168 -172 27 -178 l 20 -119 q 136 -109 223 -59 q 310 -8 310 85 q 310 156 254 183 q 198 210 56 210 q 81 313 115 515 z"}}}
